<svg width="160" height="160" viewBox="0 0 160 160" fill="none" xmlns="http://www.w3.org/2000/svg">
    <path d="M80.372 155.997c-3.34 0-6.637-.883-9.528-2.554L21.53 124.972a19.11 19.11 0 0 1-9.528-16.504V51.53a19.11 19.11 0 0 1 9.528-16.505l49.313-28.47A19.077 19.077 0 0 1 80.372 4c3.34 0 6.636.883 9.528 2.555l49.312 28.47a19.11 19.11 0 0 1 9.528 16.505v56.94a19.116 19.116 0 0 1-9.528 16.505L89.9 153.445A19.071 19.071 0 0 1 80.372 156v-.003z" fill="url(#gdc3v0ctea)"/>
    <path d="M80.371 5.813c3.025 0 6.007.799 8.624 2.31l49.312 28.47a17.295 17.295 0 0 1 8.623 14.937v56.94a17.296 17.296 0 0 1-8.623 14.937l-49.312 28.47a17.283 17.283 0 0 1-8.624 2.31c-3.022 0-6.003-.799-8.623-2.31l-49.312-28.47a17.297 17.297 0 0 1-8.623-14.937V51.53a17.3 17.3 0 0 1 8.623-14.937l49.312-28.47a17.267 17.267 0 0 1 8.623-2.31zm0-1.81c-3.34 0-6.636.883-9.528 2.554L21.528 35.025A19.117 19.117 0 0 0 12 51.53v56.94c0 6.786 3.65 13.111 9.528 16.505l49.313 28.47A19.071 19.071 0 0 0 80.369 156c3.34 0 6.636-.883 9.528-2.555l49.312-28.47a19.11 19.11 0 0 0 9.528-16.505V51.53c0-6.787-3.652-13.11-9.528-16.505l-49.31-28.47A19.077 19.077 0 0 0 80.372 4v.003z" fill="#434D54" opacity=".48"/>
    <path d="M80.369 15.985c1.24 0 2.465.326 3.535.943l49.313 28.473a7.102 7.102 0 0 1 3.541 6.129v56.938a7.103 7.103 0 0 1-3.541 6.128l-49.31 28.471a7.107 7.107 0 0 1-7.077.002l-49.306-28.473a7.103 7.103 0 0 1-3.542-6.128V51.53a7.102 7.102 0 0 1 3.541-6.129l49.305-28.47a7.1 7.1 0 0 1 3.54-.946m0-1.81c-1.556 0-3.092.41-4.443 1.188L26.62 43.833a8.919 8.919 0 0 0-4.447 7.697v56.938a8.922 8.922 0 0 0 4.447 7.696l49.31 28.473a8.894 8.894 0 0 0 8.883 0l49.313-28.473a8.919 8.919 0 0 0 4.446-7.696V51.53c0-3.161-1.704-6.11-4.446-7.697L84.809 15.36a8.898 8.898 0 0 0-4.44-1.185z" fill="#444" opacity=".99"/>
    <path d="M136.668 51.53v56.938c0 2.5-1.334 4.799-3.495 6.049l-49.312 28.471a7.002 7.002 0 0 1-6.984 0L27.57 114.517a6.986 6.986 0 0 1-3.495-6.049V51.53c0-2.492 1.334-4.8 3.495-6.05l49.307-28.47a6.999 6.999 0 0 1 6.984 0l49.312 28.47a6.992 6.992 0 0 1 3.495 6.05z" fill="url(#7tumxtanpb)"/>
    <path d="M24.074 51.53c-.027-2.92 1.71-5.313 4.275-6.593 4.433-2.593 16.755-9.85 21.37-12.55 6.622-3.87 18.466-10.78 24.97-14.573 1.103-.62 2.524-1.598 3.769-1.905 2.117-.598 4.424-.12 6.245 1.07 5.525 3.161 17.619 10.13 23.274 13.38 6.618 3.807 18.557 10.678 25.06 14.417.62.359 1.269.75 1.783 1.256 1.649 1.503 2.497 3.75 2.389 5.968l-.006 4.13-.013 8.26c-.044 11.909-.025 29.435-.066 41.3-.046 1.153.096 3.025-.16 4.207a7.465 7.465 0 0 1-2.049 3.802c-.878.935-2.457 1.658-3.536 2.31-11.756 6.754-27.628 15.768-39.471 22.495-1.112.546-7.895 4.633-9.034 5.011-1.948.731-4.212.524-5.998-.533 1.802 1.014 4.036 1.18 5.955.416 1.049-.413 7.761-4.495 8.933-5.144 11.743-6.966 27.497-16.07 39.216-22.938.997-.603 2.549-1.367 3.345-2.212a6.602 6.602 0 0 0 1.783-3.378c.217-1.035.073-2.927.106-4.038-.014-5.169-.03-19.413-.038-24.78l-.044-28.911c.134-2.666-1.255-5.077-3.633-6.294-14.447-8.376-31.995-18.53-46.456-26.919-.91-.483-2.566-1.611-3.55-1.927a6.656 6.656 0 0 0-3.82-.15c-1.136.243-2.563 1.246-3.588 1.79C63.301 25.2 47.48 34.301 35.616 40.992c-1.008.658-8.036 4.414-8.922 5.164-1.62 1.277-2.598 3.296-2.617 5.364l-.003.009z" fill="#EFEFEF"/>
    <path d="M131.917 56.014v47.972c0 3.563-1.918 6.884-5.006 8.664l-6.019 3.479-3.46 1.997-10.493 6.055-3.315 1.914-18.258 10.541a10.013 10.013 0 0 1-4.998 1.34c-1.75 0-3.484-.464-5.006-1.34l-18.257-10.541-3.307-1.908-10.493-6.061-3.46-1.997-6.025-3.479a10.028 10.028 0 0 1-4.998-8.664V56.014c0-3.563 1.913-6.882 4.998-8.664l41.542-23.981a9.989 9.989 0 0 1 5.006-1.34c1.759 0 3.484.46 4.998 1.34l41.543 23.98a10.037 10.037 0 0 1 5.006 8.665h.002z" fill="#444"/>
    <path d="M128.898 56.014v47.972c0 2.492-1.334 4.8-3.495 6.05l-.538.315-41.004 23.671a6.997 6.997 0 0 1-6.985 0l-40.708-23.503-.834-.483a6.988 6.988 0 0 1-3.49-6.05V56.014c0-2.492 1.33-4.8 3.49-6.05l41.542-23.98a6.972 6.972 0 0 1 6.985 0l41.542 23.98a6.992 6.992 0 0 1 3.495 6.05z" fill="url(#682aens2gc)"/>
    <path d="M31.845 56.014c-.08-2.492 1.299-4.95 3.465-6.202l6.318-3.788a3145.412 3145.412 0 0 1 31.77-18.646l3.188-1.849c2.28-1.361 5.288-1.361 7.569 0 13.724 7.947 27.684 16.106 41.276 24.28 2.163 1.253 3.549 3.71 3.467 6.2-.038-2.471-1.489-4.808-3.611-5.952-13.88-7.68-27.925-15.687-41.67-23.6-1.968-1.161-4.526-1.161-6.493 0l-3.194 1.836a3094.71 3094.71 0 0 1-32.036 18.184l-6.44 3.577c-2.126 1.144-3.574 3.484-3.61 5.952v.008z" fill="#A8A8A8"/>
    <path d="m124.868 110.346-3.419 1.975-.35.204-3.109 1.794-10.741 6.202-2.834 1.63-.478.277-20.076 11.591a7.012 7.012 0 0 1-6.984 0l-19.459-11.235-.223-.127-3.084-1.78-10.716-6.189-3.237-1.867-.223-.133-3.767-2.171a56.916 56.916 0 0 1 3.52-1.655 56.902 56.902 0 0 1 3.242-1.28h.005a50.696 50.696 0 0 1 2.338-.81l10.493-3.356h49.831l.103.032 10.39 3.324c.783.255 1.568.519 2.335.81 1.092.391 2.179.82 3.247 1.28 1.082.464 2.144.959 3.196 1.484z" fill="url(#ih8opyr7sd)"/>
    <path d="M105.597 98.236H55.765v5.182h49.832v-5.182z" fill="url(#5z7qw26one)"/>
    <path opacity=".38" d="m121.098 112.525-3.109 1.794-10.74 6.202-2.834 1.63-.479.277-20.075 11.591a7.012 7.012 0 0 1-6.985 0l-19.458-11.235-.223-.127-3.085-1.78-10.715-6.189-3.237-1.867 3.024-1.339 3.319-1.465c2.93-1.294 5.987-2.278 9.12-2.881a37.573 37.573 0 0 1 7.297-.701h35.548c2.214 0 4.424.176 6.604.524.269.044.538.09.804.142 2.802.516 5.533 1.386 8.164 2.481l7.06 2.943z" fill="#EFEFEF"/>
    <path d="M114.35 55.054c-.801-8.563-15.566-15.39-33.669-15.39-18.102 0-32.868 6.827-33.67 15.39l-.037 30.803c0 4.557 2.296 8.808 6.109 11.305a11.396 11.396 0 0 0 6.24 1.862h42.716a11.38 11.38 0 0 0 6.24-1.862 13.514 13.514 0 0 0 6.109-11.305V55.054h-.038z" fill="url(#6f1r8f5slf)"/>
    <path opacity=".13" d="M108.279 94.985a11.396 11.396 0 0 1-6.24 1.862H59.323c-2.218 0-4.387-.647-6.24-1.862a13.512 13.512 0 0 1-6.107-11.221v2.09c0 4.557 2.294 8.808 6.107 11.305a11.395 11.395 0 0 0 6.24 1.862h42.716a11.38 11.38 0 0 0 6.24-1.862 13.514 13.514 0 0 0 6.109-11.305V83.68c0 4.557-2.296 8.808-6.109 11.305z" fill="#EFEFEF"/>
    <path opacity=".35" d="M114.35 55.054c-.801-8.563-15.566-15.39-33.669-15.39-18.102 0-32.868 6.827-33.67 15.39l-.037 30.803v.051l.038-29.495c.801-8.563 15.567-15.39 33.669-15.39 18.103 0 32.868 6.827 33.669 15.39h.038v-1.359h-.038z" fill="#EFEFEF"/>
    <path opacity=".38" d="M59.322 92.985a5.21 5.21 0 0 1-2.932-.908c-2.117-1.44-3.38-3.867-3.38-6.495l.037-31.59c.647-3.544 10.646-10.107 27.634-10.107s27.345 6.802 27.66 10.294l.014.142v31.264c0 2.628-1.264 5.055-3.381 6.495a5.195 5.195 0 0 1-2.932.908h-42.72v-.003z" fill="#EFEFEF"/>
    <path opacity=".38" d="M80.678 46.871c-12.86 0-20.336 4.555-22.2 6.672l44.437.041c-1.802-2.098-9.292-6.713-22.237-6.713z" fill="#EFEFEF"/>
    <path d="M60.85 86.78c-4.838 0-9.556-2.116-12.944-5.804l-3.349-3.647V62.03l3.362-3.634c3.386-3.66 8.088-5.759 12.901-5.759h39.727c4.813 0 9.515 2.099 12.901 5.76l3.362 3.633v15.298l-3.349 3.647c-3.388 3.69-8.106 5.805-12.944 5.805H60.85z" fill="#6C6B6B"/>
    <path d="M47.917 58.397c2.848-3.261 6.922-5.468 11.246-5.93 1.225-.15 3.068-.111 4.32-.141 11.467-.128 22.93-.128 34.396 0 1.236.027 3.09-.006 4.321.141 4.324.46 8.398 2.669 11.246 5.93-2.019-2.027-4.46-3.642-7.159-4.533-1.339-.457-2.728-.777-4.136-.886-1.193-.109-3.044-.033-4.272-.027-12.178.133-24.364.128-36.545-.03-5.006-.198-9.917 1.897-13.417 5.473v.003z" fill="#EFEFEF"/>
    <path d="M46.61 57.984h.36v22.717h-.36a4.77 4.77 0 0 1-4.767-4.767v-13.18a4.77 4.77 0 0 1 4.766-4.767v-.003z" fill="url(#ykuh0m53jg)"/>
    <path opacity=".26" d="M46.97 79.861a3.958 3.958 0 0 1-3.5-3.927v-13.18a3.958 3.958 0 0 1 3.5-3.928v21.035z" fill="#2E2E2E"/>
    <path d="M114.75 80.701h-.361V57.984h.361a4.77 4.77 0 0 1 4.767 4.767v13.18a4.77 4.77 0 0 1-4.767 4.767v.003z" fill="url(#9gwx1mtm5h)"/>
    <path opacity=".26" d="M114.389 58.826c1.967.226 3.5 1.9 3.5 3.928v13.18a3.958 3.958 0 0 1-3.5 3.927V58.826z" fill="#2E2E2E"/>
    <path d="M41.785 75.934c-.152-3.027-.285-7.438-.38-10.514-.01-1.816-.462-3.813.66-5.411a4.789 4.789 0 0 1 3.547-2.172c.465-.027.927.006 1.359.095v.11a8.35 8.35 0 0 0-1.258.282c-1.522.508-2.748 1.766-3.15 3.318-.307 1.22-.199 2.525-.286 3.778-.09 3.09-.23 7.468-.38 10.514h-.111zM119.465 75.934c-.146-3.027-.291-7.438-.38-10.514-.087-1.253.022-2.558-.286-3.778-.404-1.552-1.627-2.81-3.149-3.318-.4-.13-.816-.21-1.259-.283v-.109c1.859-.429 3.876.457 4.903 2.077 1.125 1.598.671 3.595.66 5.41-.095 3.09-.228 7.469-.38 10.515h-.109z" fill="#EFEFEF"/>
    <path d="M114.389 62.977v13.411l-2.713 2.952a15.705 15.705 0 0 1-4.429 3.383 14.728 14.728 0 0 1-6.737 1.642H60.85c-4.193 0-8.212-1.808-11.167-5.025l-2.712-2.952V62.976l2.718-2.94c2.951-3.19 6.954-4.982 11.129-4.982h39.724c2.34 0 4.628.563 6.705 1.623a15.713 15.713 0 0 1 4.424 3.359l2.718 2.94z" fill="#424242"/>
    <path d="M61.046 55.054v29.31h-.196c-4.193 0-8.212-1.807-11.167-5.024l-2.712-2.952V62.976l2.718-2.94c2.951-3.19 6.954-4.982 11.129-4.982h.228zM114.388 62.977v13.411l-2.712 2.952a15.693 15.693 0 0 1-4.43 3.383V56.677a15.733 15.733 0 0 1 4.425 3.359l2.717 2.94z" fill="#5A6970" opacity=".23"/>
    <path opacity=".12" d="M107.246 56.677v26.046a14.722 14.722 0 0 1-6.737 1.642h-4.677v-29.31h4.71c2.34 0 4.628.562 6.704 1.622z" fill="#CDEDFF"/>
    <path d="M114.389 62.977v13.411l-2.713 2.952a15.705 15.705 0 0 1-4.429 3.383 14.728 14.728 0 0 1-6.737 1.642H60.85c-4.193 0-8.212-1.808-11.167-5.025l-2.712-2.952V62.976l2.718-2.94c2.951-3.19 6.954-4.982 11.129-4.982h39.724c2.34 0 4.628.563 6.705 1.623a15.713 15.713 0 0 1 4.424 3.359l2.718 2.94z" fill="#5A6970" opacity=".23"/>
    <path d="M49.683 79.34c2.802 2.88 6.7 4.715 10.735 4.747 1.335 0 2.699-.027 4.047-.038 4.677-.062 11.468-.079 16.216-.09 4.767.011 11.512.028 16.217.09 2.68.003 5.386.27 7.976-.562 2.582-.742 4.916-2.231 6.802-4.145-2.666 3.101-6.606 5.12-10.718 5.28-9.004.172-19.342.158-28.386.131-3.354-.022-6.776-.046-10.135-.092-5.008.195-9.435-1.503-12.754-5.319v-.002z" fill="#EFEFEF"/>
    <path d="M88.948 151.796c-5.36 3.519-12.757 3.424-18.214.038-.75-.419-3.014-1.674-3.804-2.115a1547.098 1547.098 0 0 1-40.211-23.214c-.791-.476-2.96-1.775-3.734-2.239-1.598-.916-3.123-2.052-4.398-3.392-3.13-3.299-4.886-7.876-4.68-12.406.199 4.294 2.006 8.506 5.064 11.528 1.326 1.362 2.905 2.405 4.579 3.291l3.805 2.115c9.378 5.201 20.92 11.851 30.226 17.295a1905.3 1905.3 0 0 1 14.95 8.895c4.99 2.84 11.289 2.891 16.423.201l-.006.003z" fill="#919191"/>
    <path d="M22.479 36.672a4576.442 4576.442 0 0 1 47.23-28.027l1.395-.819c4.288-2.66 9.726-3.359 14.553-1.864 1.595.468 3.13 1.24 4.547 2.082l1.402.802 22.405 12.881c1.546.908 24.426 14.119 25.163 14.619.951.59 1.848 1.288 2.663 2.057 3.296 3.058 5.343 7.39 5.639 11.871.046 14.751-.239 30.468-.421 45.274-.044 3.185-.147 9.726-.218 12.922-.084-3.247-.165-9.68-.217-12.922-.242-14.257-.351-29.42-.457-43.61 0-1.555-.179-3.115-.581-4.615-.818-2.984-2.473-5.743-4.761-7.827a15.433 15.433 0 0 0-2.457-1.862c-.682-.443-23.693-13.616-25.174-14.49L90.832 10.182l-1.395-.813c-1.356-.82-2.712-1.527-4.22-1.986-4.45-1.422-9.444-.8-13.447 1.606-16.135 9.166-33.026 18.705-49.294 27.685l.003-.003z" fill="#EFEFEF"/>
    <path opacity=".26" d="M98.346 99.051h-35.33v4.348h35.33v-4.348z" fill="#494949"/>
    <path d="m121.672 108.862-.223 3.459-3.459 1.998.435-6.737c1.092.391 2.179.821 3.247 1.28zM43.394 114.688l-3.236-1.864-.223-.133-.248-3.827a58.428 58.428 0 0 1 3.243-1.28l.252 3.9.212 3.207v-.003z" fill="#6C6B6B"/>
    <path opacity=".38" d="M99.835 115.085H61.663a4.15 4.15 0 0 0-4.15 4.15v3.261a4.15 4.15 0 0 1 4.15-4.15h38.175a4.15 4.15 0 0 1 4.15 4.15v-3.261a4.15 4.15 0 0 0-4.15-4.15h-.003z" fill="#EFEFEF"/>
    <path d="M99.89 112.756H61.464a7.36 7.36 0 0 0-7.354 7.354v.767l3.308 1.907v-2.674a4.052 4.052 0 0 1 4.044-4.044H99.89a4.052 4.052 0 0 1 4.044 4.044v2.318l3.315-1.907v-.411c0-4.057-3.296-7.354-7.36-7.354z" fill="#6C6B6B"/>
    <path d="M114.389 55.054h-.038c-.223-1.638-.943-3.157-1.933-4.462-3.084-3.867-7.783-6-12.368-7.553-12.085-3.804-26.65-3.804-38.735 0-5.123 1.737-11.2 4.517-13.626 9.651a9.186 9.186 0 0 0-.677 2.362 9.34 9.34 0 0 1 .524-2.425c.92-2.35 2.696-4.25 4.656-5.79 12.257-9.032 34.11-9.54 48.13-4.6 5.838 2.102 13.295 6.045 14.069 12.815l-.002.002z" fill="#EFEFEF"/>
    <defs>
        <linearGradient id="gdc3v0ctea" x1="80.372" y1="156.372" x2="80.372" y2="-5.797" gradientUnits="userSpaceOnUse">
            <stop stop-color="#6B6B6B"/>
            <stop offset="1" stop-color="#9A9A9A"/>
        </linearGradient>
        <linearGradient id="7tumxtanpb" x1="80.371" y1="175.094" x2="80.371" y2="15.719" gradientUnits="userSpaceOnUse">
            <stop stop-color="#6B6B6B"/>
            <stop offset="1" stop-color="#9A9A9A"/>
        </linearGradient>
        <linearGradient id="682aens2gc" x1="80.371" y1="41.526" x2="80.371" y2="194.322" gradientUnits="userSpaceOnUse">
            <stop stop-color="#6C6B6A"/>
            <stop offset=".14" stop-color="#626160"/>
            <stop offset="1" stop-color="#2E2E2E"/>
        </linearGradient>
        <linearGradient id="ih8opyr7sd" x1="80.518" y1="101.891" x2="80.518" y2="141.64" gradientUnits="userSpaceOnUse">
            <stop stop-color="#9C999A"/>
            <stop offset=".37" stop-color="#BBB9BA"/>
            <stop offset="1" stop-color="#EFEEEE"/>
        </linearGradient>
        <linearGradient id="5z7qw26one" x1="80.681" y1="111.471" x2="80.681" y2="55.875" gradientUnits="userSpaceOnUse">
            <stop stop-color="#9C999A"/>
            <stop offset=".37" stop-color="#BBB9BA"/>
            <stop offset="1" stop-color="#EFEEEE"/>
        </linearGradient>
        <linearGradient id="6f1r8f5slf" x1="80.681" y1="146.855" x2="80.681" y2="-46.234" gradientUnits="userSpaceOnUse">
            <stop stop-color="#9C999A"/>
            <stop offset=".37" stop-color="#BBB9BA"/>
            <stop offset="1" stop-color="#EFEEEE"/>
        </linearGradient>
        <linearGradient id="ykuh0m53jg" x1="44.405" y1="90.227" x2="44.405" y2="17.776" gradientUnits="userSpaceOnUse">
            <stop stop-color="#9C999A"/>
            <stop offset=".37" stop-color="#BBB9BA"/>
            <stop offset="1" stop-color="#EFEEEE"/>
        </linearGradient>
        <linearGradient id="9gwx1mtm5h" x1="116.954" y1="90.227" x2="116.954" y2="17.776" gradientUnits="userSpaceOnUse">
            <stop stop-color="#9C999A"/>
            <stop offset=".37" stop-color="#BBB9BA"/>
            <stop offset="1" stop-color="#EFEEEE"/>
        </linearGradient>
    </defs>
</svg>
