<svg width="24" height="24" viewBox="0 0 24 24" fill="none" xmlns="http://www.w3.org/2000/svg">
<g id="Vector">
<path fill-rule="evenodd" clip-rule="evenodd" d="M12 24C18.6274 24 24 18.6274 24 12C24 5.37258 18.6274 0 12 0C5.37258 0 0 5.37258 0 12C0 18.6274 5.37258 24 12 24ZM12.8571 6.85714C12.8571 6.38376 12.4734 6 12 6C11.5266 6 11.1429 6.38376 11.1429 6.85714V11.1429H6.85714C6.38376 11.1429 6 11.5266 6 12C6 12.4734 6.38376 12.8571 6.85714 12.8571H11.1429V17.1429C11.1429 17.6162 11.5266 18 12 18C12.4734 18 12.8571 17.6162 12.8571 17.1429V12.8571H17.1429C17.6162 12.8571 18 12.4734 18 12C18 11.5266 17.6162 11.1429 17.1429 11.1429H12.8571V6.85714Z" fill="#EAC64A"/>
<path d="M23.5 12C23.5 18.3513 18.3513 23.5 12 23.5C5.64873 23.5 0.5 18.3513 0.5 12C0.5 5.64873 5.64873 0.5 12 0.5C18.3513 0.5 23.5 5.64873 23.5 12ZM13.3571 6.85714C13.3571 6.10761 12.7495 5.5 12 5.5C11.2505 5.5 10.6429 6.10761 10.6429 6.85714V10.6429H6.85714C6.10761 10.6429 5.5 11.2505 5.5 12C5.5 12.7495 6.10761 13.3571 6.85714 13.3571H10.6429V17.1429C10.6429 17.8924 11.2505 18.5 12 18.5C12.7495 18.5 13.3571 17.8924 13.3571 17.1429V13.3571H17.1429C17.8924 13.3571 18.5 12.7495 18.5 12C18.5 11.2505 17.8924 10.6429 17.1429 10.6429H13.3571V6.85714Z" stroke="#555555" stroke-opacity="0.8"/>
</g>
</svg>
