<svg width="25" height="20" viewBox="0 0 25 20" fill="none" xmlns="http://www.w3.org/2000/svg">
<g id="&#240;&#159;&#166;&#134; icon &#34;Robot&#34;">
<path id="Vector" d="M2.06047 8.53965H3.26047V15.7396H2.06047C1.90283 15.7398 1.7467 15.7089 1.60102 15.6487C1.45535 15.5885 1.32298 15.5001 1.21152 15.3886C1.10005 15.2771 1.01166 15.1448 0.951426 14.9991C0.891187 14.8534 0.860278 14.6973 0.860467 14.5396V9.73965C0.860278 9.58201 0.891187 9.42588 0.951426 9.2802C1.01166 9.13453 1.10005 9.00217 1.21152 8.8907C1.32298 8.77923 1.45535 8.69085 1.60102 8.63061C1.7467 8.57037 1.90283 8.53946 2.06047 8.53965ZM21.2605 6.73965V16.9396C21.2598 17.576 21.0068 18.1861 20.5568 18.636C20.1069 19.086 19.4968 19.339 18.8605 19.3396H6.86047C6.22414 19.339 5.61406 19.086 5.1641 18.636C4.71415 18.1861 4.46109 17.576 4.46047 16.9396V6.73965C4.46034 6.34565 4.53785 5.95548 4.68857 5.59145C4.83929 5.22741 5.06026 4.89664 5.33886 4.61804C5.61746 4.33944 5.94823 4.11847 6.31226 3.96775C6.6763 3.81703 7.06646 3.73952 7.46047 3.73965H11.6605V1.33965C11.6605 1.02139 11.7869 0.716164 12.0119 0.49112C12.237 0.266077 12.5422 0.139648 12.8605 0.139648C13.1787 0.139648 13.484 0.266077 13.709 0.49112C13.934 0.716164 14.0605 1.02139 14.0605 1.33965V3.73965H18.2605C18.6545 3.73952 19.0446 3.81703 19.4087 3.96775C19.7727 4.11847 20.1035 4.33944 20.3821 4.61804C20.6607 4.89664 20.8816 5.22741 21.0324 5.59145C21.1831 5.95548 21.2606 6.34565 21.2605 6.73965ZM10.7605 9.73965C10.7605 9.44298 10.6725 9.15297 10.5077 8.90629C10.3428 8.65962 10.1086 8.46736 9.83449 8.35383C9.5604 8.2403 9.2588 8.21059 8.96783 8.26847C8.67686 8.32635 8.40959 8.46921 8.19981 8.67899C7.99003 8.88877 7.84717 9.15604 7.78929 9.44701C7.73141 9.73798 7.76112 10.0396 7.87465 10.3137C7.98818 10.5878 8.18044 10.822 8.42711 10.9869C8.67379 11.1517 8.96379 11.2396 9.26047 11.2396C9.45745 11.2397 9.65251 11.2009 9.83451 11.1255C10.0165 11.0501 10.1819 10.9396 10.3212 10.8003C10.4605 10.6611 10.5709 10.4957 10.6463 10.3137C10.7217 10.1317 10.7605 9.93664 10.7605 9.73965ZM10.4605 14.5396H8.06047V15.7396H10.4605V14.5396ZM14.0605 14.5396H11.6605V15.7396H14.0605V14.5396ZM17.9605 9.73965C17.9605 9.44298 17.8725 9.15297 17.7077 8.90629C17.5428 8.65962 17.3086 8.46736 17.0345 8.35383C16.7604 8.2403 16.4588 8.21059 16.1678 8.26847C15.8769 8.32635 15.6096 8.46921 15.3998 8.67899C15.19 8.88877 15.0472 9.15604 14.9893 9.44701C14.9314 9.73798 14.9611 10.0396 15.0746 10.3137C15.1882 10.5878 15.3804 10.822 15.6271 10.9869C15.8738 11.1517 16.1638 11.2396 16.4605 11.2396C16.6575 11.2397 16.8525 11.2009 17.0345 11.1255C17.2165 11.0501 17.3819 10.9396 17.5212 10.8003C17.6604 10.6611 17.7709 10.4957 17.8463 10.3137C17.9217 10.1317 17.9605 9.93664 17.9605 9.73965ZM17.6605 14.5396H15.2605V15.7396H17.6605V14.5396ZM24.8605 9.73965V14.5396C24.8607 14.6973 24.8297 14.8534 24.7695 14.9991C24.7093 15.1448 24.6209 15.2771 24.5094 15.3886C24.3979 15.5001 24.2656 15.5885 24.1199 15.6487C23.9742 15.7089 23.8181 15.7398 23.6605 15.7396H22.4605V8.53965H23.6605C23.8181 8.53946 23.9742 8.57037 24.1199 8.63061C24.2656 8.69085 24.3979 8.77923 24.5094 8.8907C24.6209 9.00217 24.7093 9.13453 24.7695 9.2802C24.8297 9.42588 24.8607 9.58201 24.8605 9.73965Z" fill="white"/>
</g>
</svg>
