<svg width="24" height="24" viewBox="0 0 24 24" fill="none" xmlns="http://www.w3.org/2000/svg">
<g id="icon 3">
<path id="Vector" d="M15.5985 8.57749L13.1385 5.47849C13.3255 5.26078 13.4462 4.99399 13.4861 4.70976C13.5261 4.42553 13.4837 4.13581 13.3639 3.87498C13.2441 3.61415 13.052 3.39316 12.8104 3.23824C12.5688 3.08332 12.2878 3.00098 12.0008 3.00098C11.7137 3.00098 11.4327 3.08332 11.1911 3.23824C10.9495 3.39316 10.7574 3.61415 10.6376 3.87498C10.5178 4.13581 10.4754 4.42553 10.5154 4.70976C10.5553 4.99399 10.676 5.26078 10.863 5.47849L8.403 8.57749C8.29787 8.71051 8.15077 8.80399 7.98569 8.84267C7.8206 8.88135 7.64728 8.86296 7.494 8.79049L3.7275 7.01449C3.7425 6.92849 3.75 6.84049 3.75 6.75049C3.74998 6.44806 3.65855 6.1527 3.4877 5.90316C3.31684 5.65362 3.07455 5.46155 2.7926 5.35215C2.51065 5.24275 2.20222 5.22114 1.90777 5.29014C1.61332 5.35914 1.3466 5.51553 1.14261 5.7388C0.938618 5.96207 0.80688 6.24179 0.764678 6.54126C0.722475 6.84072 0.771781 7.14596 0.906126 7.41691C1.04047 7.68786 1.25358 7.91187 1.51749 8.05956C1.78141 8.20724 2.0838 8.2717 2.385 8.24449L4.335 17.9945C4.42018 18.4189 4.64956 18.8007 4.98421 19.0752C5.31886 19.3497 5.73817 19.4999 6.171 19.5005H17.826C18.2596 19.5006 18.6797 19.3504 19.015 19.0755C19.3503 18.8007 19.58 18.4181 19.665 17.993L21.615 8.24449C21.659 8.24849 21.7035 8.25049 21.7485 8.25049C22.0564 8.2503 22.3569 8.15534 22.609 7.9785C22.8611 7.80166 23.0526 7.55151 23.1577 7.26203C23.2627 6.97255 23.2761 6.65776 23.196 6.36041C23.1159 6.06306 22.9462 5.79756 22.71 5.59998C22.4739 5.40239 22.1826 5.28228 21.8757 5.25597C21.5689 5.22966 21.2614 5.29842 20.9951 5.45291C20.7287 5.6074 20.5163 5.84013 20.3868 6.11951C20.2572 6.39888 20.2168 6.71135 20.271 7.01449L16.506 8.79049C16.3529 8.86258 16.1799 8.88076 16.0151 8.84209C15.8504 8.80342 15.7036 8.71017 15.5985 8.57749ZM12 15.0005C11.6022 15.0005 11.2206 14.8425 10.9393 14.5611C10.658 14.2798 10.5 13.8983 10.5 13.5005C10.5 13.1027 10.658 12.7211 10.9393 12.4398C11.2206 12.1585 11.6022 12.0005 12 12.0005C12.3978 12.0005 12.7794 12.1585 13.0607 12.4398C13.342 12.7211 13.5 13.1027 13.5 13.5005C13.5 13.8983 13.342 14.2798 13.0607 14.5611C12.7794 14.8425 12.3978 15.0005 12 15.0005Z" fill="url(#paint0_linear_278_207)"/>
</g>
<defs>
<linearGradient id="paint0_linear_278_207" x1="11.9988" y1="3.00098" x2="11.9988" y2="19.5005" gradientUnits="userSpaceOnUse">
<stop stop-color="#856220"/>
<stop offset="0.28" stop-color="#F4E683"/>
<stop offset="0.5" stop-color="#BF923D"/>
<stop offset="0.75" stop-color="#4E341B"/>
<stop offset="1" stop-color="#F1EA82"/>
</linearGradient>
</defs>
</svg>
